<svg xmlns="http://www.w3.org/2000/svg" xmlns:xlink="http://www.w3.org/1999/xlink" width="500" zoomAndPan="magnify" viewBox="0 0 375 374.999991" height="500" preserveAspectRatio="xMidYMid meet" version="1.0"><defs><g/><clipPath id="ea3ba6ea6c"><path d="M 89.203125 131.640625 L 200.925781 131.640625 L 200.925781 243.359375 L 89.203125 243.359375 Z M 89.203125 131.640625 " clip-rule="nonzero"/></clipPath><clipPath id="89d8621b52"><path d="M 145.0625 131.640625 C 114.210938 131.640625 89.203125 156.648438 89.203125 187.5 C 89.203125 218.351562 114.210938 243.359375 145.0625 243.359375 C 175.914062 243.359375 200.925781 218.351562 200.925781 187.5 C 200.925781 156.648438 175.914062 131.640625 145.0625 131.640625 Z M 145.0625 131.640625 " clip-rule="nonzero"/></clipPath></defs><g clip-path="url(#ea3ba6ea6c)"><g clip-path="url(#89d8621b52)"><path fill="#ffb923" d="M 89.203125 131.640625 L 200.925781 131.640625 L 200.925781 243.359375 L 89.203125 243.359375 Z M 89.203125 131.640625 " fill-opacity="1" fill-rule="nonzero"/></g></g><g fill="#ffffff" fill-opacity="1"><g transform="translate(130.340627, 214.758502)"><g><path d="M 39.046875 0 L 28.15625 0 L 28.15625 -12.5 L 1.96875 -12.5 L 1.96875 -21.671875 L 24.5 -57.5 L 39.046875 -57.5 L 39.046875 -21.671875 L 47.90625 -21.671875 L 47.90625 -12.5 L 39.046875 -12.5 Z M 13.609375 -22.5 L 13.96875 -21.671875 L 28.15625 -21.671875 L 28.15625 -43.9375 L 27.25 -44.09375 Z M 13.609375 -22.5 "/></g></g></g><g fill="#000000" fill-opacity="1"><g transform="translate(187.314996, 200.508503)"><g><path d="M 1.390625 0.5625 C 1.222656 0.320312 1.101562 0.078125 1.03125 -0.171875 C 0.957031 -0.429688 0.921875 -0.703125 0.921875 -0.984375 L 0.921875 -1.078125 C 0.921875 -1.078125 0.921875 -1.113281 0.921875 -1.1875 C 0.992188 -2.082031 1.304688 -2.679688 1.859375 -2.984375 C 2.234375 -3.222656 2.78125 -3.34375 3.5 -3.34375 C 4.226562 -3.34375 4.710938 -3.429688 4.953125 -3.609375 C 5.191406 -3.773438 5.328125 -3.984375 5.359375 -4.234375 C 5.460938 -4.671875 5.53125 -5.269531 5.5625 -6.03125 L 5.5625 -26.5 C 5.53125 -27.25 5.460938 -27.847656 5.359375 -28.296875 C 5.359375 -28.367188 5.335938 -28.4375 5.296875 -28.5 C 5.265625 -28.570312 5.222656 -28.640625 5.171875 -28.703125 C 5.128906 -28.773438 5.054688 -28.828125 4.953125 -28.859375 C 4.710938 -29.066406 4.226562 -29.171875 3.5 -29.171875 L 3.203125 -29.171875 C 3.054688 -29.171875 2.929688 -29.179688 2.828125 -29.203125 C 2.734375 -29.222656 2.609375 -29.238281 2.453125 -29.25 C 2.296875 -29.269531 2.144531 -29.3125 2 -29.375 C 1.863281 -29.445312 1.75 -29.550781 1.65625 -29.6875 C 1.582031 -29.726562 1.507812 -29.78125 1.4375 -29.84375 C 1.375 -29.914062 1.320312 -29.976562 1.28125 -30.03125 C 1.25 -30.082031 1.21875 -30.140625 1.1875 -30.203125 C 1.15625 -30.273438 1.128906 -30.335938 1.109375 -30.390625 C 1.085938 -30.441406 1.066406 -30.507812 1.046875 -30.59375 C 1.035156 -30.675781 1.019531 -30.734375 1 -30.765625 C 0.988281 -30.804688 0.984375 -30.867188 0.984375 -30.953125 C 0.984375 -31.035156 0.972656 -31.09375 0.953125 -31.125 C 0.929688 -31.164062 0.921875 -31.21875 0.921875 -31.28125 C 0.921875 -31.351562 0.921875 -31.40625 0.921875 -31.4375 L 0.921875 -31.546875 C 0.960938 -32.128906 1.117188 -32.644531 1.390625 -33.09375 C 1.566406 -33.363281 1.804688 -33.578125 2.109375 -33.734375 C 2.421875 -33.890625 2.75 -33.96875 3.09375 -33.96875 L 3.140625 -33.96875 C 5.410156 -33.863281 7.441406 -33.8125 9.234375 -33.8125 C 11.253906 -33.8125 13.382812 -33.863281 15.625 -33.96875 L 15.671875 -33.96875 C 15.878906 -33.96875 16.09375 -33.929688 16.3125 -33.859375 C 16.539062 -33.796875 16.75 -33.691406 16.9375 -33.546875 C 17.125 -33.410156 17.285156 -33.257812 17.421875 -33.09375 C 17.597656 -32.851562 17.71875 -32.601562 17.78125 -32.34375 C 17.851562 -32.082031 17.890625 -31.816406 17.890625 -31.546875 L 17.890625 -31.4375 C 17.816406 -30.476562 17.472656 -29.828125 16.859375 -29.484375 C 16.617188 -29.347656 16.382812 -29.257812 16.15625 -29.21875 C 15.9375 -29.1875 15.65625 -29.171875 15.3125 -29.171875 C 14.59375 -29.171875 14.109375 -29.066406 13.859375 -28.859375 C 13.617188 -28.722656 13.484375 -28.535156 13.453125 -28.296875 C 13.347656 -27.847656 13.28125 -27.25 13.25 -26.5 L 13.25 -5.3125 C 13.3125 -4.726562 13.378906 -4.265625 13.453125 -3.921875 C 13.453125 -3.878906 13.46875 -3.847656 13.5 -3.828125 C 13.539062 -3.816406 13.585938 -3.785156 13.640625 -3.734375 C 13.691406 -3.679688 13.75 -3.640625 13.8125 -3.609375 C 13.945312 -3.535156 14.148438 -3.472656 14.421875 -3.421875 C 14.703125 -3.367188 15.082031 -3.34375 15.5625 -3.34375 L 20.203125 -3.34375 C 21.171875 -3.382812 21.859375 -3.523438 22.265625 -3.765625 C 22.679688 -4.003906 23.007812 -4.378906 23.25 -4.890625 C 23.382812 -5.203125 23.5625 -5.660156 23.78125 -6.265625 C 24.007812 -6.867188 24.242188 -7.582031 24.484375 -8.40625 L 24.484375 -8.453125 L 24.53125 -8.5 C 24.769531 -9.125 25.179688 -9.5625 25.765625 -9.8125 C 26.359375 -10.070312 27 -10.148438 27.6875 -10.046875 L 27.734375 -10.046875 L 27.734375 -10 C 28.003906 -9.96875 28.25 -9.890625 28.46875 -9.765625 C 28.695312 -9.648438 28.914062 -9.519531 29.125 -9.375 C 29.78125 -8.863281 30.070312 -8.210938 30 -7.421875 L 30 -7.375 L 28.96875 -0.875 L 28.96875 -0.828125 L 28.921875 -0.765625 C 28.847656 -0.421875 28.742188 -0.113281 28.609375 0.15625 C 28.472656 0.425781 28.25 0.664062 27.9375 0.875 C 27.519531 1.144531 26.9375 1.28125 26.1875 1.28125 L 9.28125 1.28125 C 8.351562 1.28125 7.378906 1.289062 6.359375 1.3125 C 5.347656 1.332031 4.273438 1.375 3.140625 1.4375 L 3.09375 1.4375 C 2.375 1.4375 1.804688 1.144531 1.390625 0.5625 Z M 1.390625 0.5625 "/></g></g></g><g fill="#000000" fill-opacity="1"><g transform="translate(216.743763, 200.508503)"><g><path d="M 0.921875 0.625 C 0.578125 0.175781 0.40625 -0.320312 0.40625 -0.875 L 0.40625 -0.984375 C 0.40625 -0.984375 0.40625 -1 0.40625 -1.03125 C 0.476562 -1.925781 0.820312 -2.523438 1.4375 -2.828125 C 1.78125 -3.003906 2.28125 -3.09375 2.9375 -3.09375 C 3.519531 -3.09375 3.878906 -3.144531 4.015625 -3.25 C 4.117188 -3.351562 4.191406 -3.4375 4.234375 -3.5 C 4.265625 -3.882812 4.28125 -4.488281 4.28125 -5.3125 L 4.28125 -17.109375 C 4.28125 -17.929688 4.265625 -18.535156 4.234375 -18.921875 C 4.191406 -18.984375 4.117188 -19.066406 4.015625 -19.171875 C 3.878906 -19.273438 3.519531 -19.328125 2.9375 -19.328125 C 2.28125 -19.328125 1.75 -19.445312 1.34375 -19.6875 C 0.71875 -20.070312 0.40625 -20.726562 0.40625 -21.65625 C 0.40625 -22.132812 0.5625 -22.578125 0.875 -22.984375 C 1.050781 -23.222656 1.273438 -23.421875 1.546875 -23.578125 C 1.816406 -23.734375 2.09375 -23.828125 2.375 -23.859375 C 4.4375 -24.140625 6.1875 -24.554688 7.625 -25.109375 C 7.9375 -25.242188 8.210938 -25.335938 8.453125 -25.390625 C 8.691406 -25.441406 8.914062 -25.484375 9.125 -25.515625 L 9.4375 -25.515625 C 10.050781 -25.515625 10.554688 -25.28125 10.953125 -24.8125 C 11.347656 -24.351562 11.546875 -23.832031 11.546875 -23.25 L 11.546875 -5.3125 C 11.546875 -4.488281 11.582031 -3.90625 11.65625 -3.5625 C 11.65625 -3.488281 11.722656 -3.382812 11.859375 -3.25 C 11.859375 -3.25 11.890625 -3.238281 11.953125 -3.21875 C 12.023438 -3.207031 12.144531 -3.179688 12.3125 -3.140625 C 12.488281 -3.109375 12.695312 -3.09375 12.9375 -3.09375 L 13.25 -3.09375 C 13.800781 -3.09375 14.265625 -2.957031 14.640625 -2.6875 C 15.085938 -2.34375 15.34375 -1.773438 15.40625 -0.984375 L 15.40625 -0.875 C 15.40625 -0.738281 15.394531 -0.609375 15.375 -0.484375 C 15.363281 -0.367188 15.34375 -0.25 15.3125 -0.125 C 15.28125 -0.0078125 15.238281 0.101562 15.1875 0.21875 C 15.132812 0.34375 15.070312 0.457031 15 0.5625 C 14.863281 0.738281 14.703125 0.894531 14.515625 1.03125 C 14.328125 1.164062 14.128906 1.265625 13.921875 1.328125 C 13.710938 1.398438 13.503906 1.4375 13.296875 1.4375 L 13.25 1.4375 C 11.257812 1.332031 9.472656 1.28125 7.890625 1.28125 C 7.128906 1.28125 6.300781 1.289062 5.40625 1.3125 C 4.519531 1.332031 3.578125 1.375 2.578125 1.4375 L 2.53125 1.4375 C 1.875 1.4375 1.335938 1.164062 0.921875 0.625 Z M 4.328125 -29.890625 C 3.398438 -30.753906 2.9375 -31.820312 2.9375 -33.09375 C 2.9375 -33.40625 2.976562 -33.707031 3.0625 -34 C 3.15625 -34.289062 3.269531 -34.570312 3.40625 -34.84375 C 3.539062 -35.125 3.710938 -35.375 3.921875 -35.59375 C 4.128906 -35.8125 4.367188 -36.023438 4.640625 -36.234375 C 5.117188 -36.609375 5.660156 -36.898438 6.265625 -37.109375 C 6.867188 -37.316406 7.476562 -37.421875 8.09375 -37.421875 C 8.46875 -37.421875 8.84375 -37.367188 9.21875 -37.265625 C 9.601562 -37.160156 9.957031 -37.015625 10.28125 -36.828125 C 10.613281 -36.640625 10.898438 -36.390625 11.140625 -36.078125 C 11.929688 -35.253906 12.328125 -34.207031 12.328125 -32.9375 C 12.328125 -31.738281 11.859375 -30.707031 10.921875 -29.84375 C 10.035156 -29.050781 8.9375 -28.65625 7.625 -28.65625 C 6.320312 -28.65625 5.222656 -29.066406 4.328125 -29.890625 Z M 4.328125 -29.890625 "/></g></g></g><g fill="#000000" fill-opacity="1"><g transform="translate(231.999309, 200.508503)"><g><path d="M 1.28125 0.5625 C 1.007812 0.15625 0.875 -0.320312 0.875 -0.875 L 0.875 -0.984375 C 0.945312 -1.867188 1.253906 -2.46875 1.796875 -2.78125 C 2.179688 -2.988281 2.695312 -3.09375 3.34375 -3.09375 C 3.9375 -3.09375 4.300781 -3.144531 4.4375 -3.25 C 4.570312 -3.351562 4.640625 -3.4375 4.640625 -3.5 C 4.671875 -3.84375 4.6875 -4.445312 4.6875 -5.3125 L 4.6875 -20.046875 L 2.53125 -20.046875 C 1.800781 -20.046875 1.234375 -20.320312 0.828125 -20.875 C 0.515625 -21.320312 0.359375 -21.820312 0.359375 -22.375 L 0.359375 -22.46875 C 0.359375 -22.46875 0.359375 -22.503906 0.359375 -22.578125 C 0.429688 -23.472656 0.773438 -24.070312 1.390625 -24.375 C 1.734375 -24.550781 2.234375 -24.640625 2.890625 -24.640625 L 4.6875 -24.640625 L 4.6875 -25.515625 C 4.6875 -29.328125 5.613281 -32.472656 7.46875 -34.953125 C 9.15625 -37.179688 11.441406 -38.453125 14.328125 -38.765625 C 14.703125 -38.828125 15.097656 -38.859375 15.515625 -38.859375 C 17.472656 -38.859375 19.222656 -38.3125 20.765625 -37.21875 C 22.484375 -36.007812 23.34375 -34.445312 23.34375 -32.53125 C 23.34375 -31.1875 22.953125 -30.015625 22.171875 -29.015625 C 21.304688 -27.921875 20.132812 -27.375 18.65625 -27.375 C 18.207031 -27.375 17.785156 -27.441406 17.390625 -27.578125 C 16.992188 -27.710938 16.625 -27.898438 16.28125 -28.140625 C 16.25 -28.179688 16.191406 -28.222656 16.109375 -28.265625 C 16.023438 -28.316406 15.960938 -28.359375 15.921875 -28.390625 C 15.890625 -28.429688 15.835938 -28.484375 15.765625 -28.546875 C 15.703125 -28.617188 15.648438 -28.679688 15.609375 -28.734375 C 15.578125 -28.785156 15.523438 -28.84375 15.453125 -28.90625 C 15.390625 -28.976562 15.34375 -29.050781 15.3125 -29.125 C 15.28125 -29.195312 15.242188 -29.28125 15.203125 -29.375 C 15.171875 -29.476562 15.144531 -29.582031 15.125 -29.6875 C 15.113281 -29.789062 15.109375 -29.894531 15.109375 -30 C 15.109375 -30.414062 15.15625 -30.71875 15.25 -30.90625 C 15.351562 -31.09375 15.5 -31.226562 15.6875 -31.3125 C 15.882812 -31.394531 15.984375 -31.4375 15.984375 -31.4375 C 16.117188 -31.539062 16.238281 -31.660156 16.34375 -31.796875 C 16.445312 -31.941406 16.550781 -32.097656 16.65625 -32.265625 C 16.789062 -32.503906 16.859375 -32.796875 16.859375 -33.140625 C 16.859375 -33.523438 16.703125 -33.851562 16.390625 -34.125 C 16.078125 -34.4375 15.664062 -34.59375 15.15625 -34.59375 C 14.8125 -34.59375 14.519531 -34.554688 14.28125 -34.484375 C 14.039062 -34.410156 13.832031 -34.304688 13.65625 -34.171875 C 13.488281 -34.035156 13.332031 -33.847656 13.1875 -33.609375 C 13.050781 -33.367188 12.929688 -33.132812 12.828125 -32.90625 C 12.734375 -32.6875 12.640625 -32.445312 12.546875 -32.1875 C 12.460938 -31.925781 12.394531 -31.675781 12.34375 -31.4375 C 12.289062 -31.195312 12.25 -30.941406 12.21875 -30.671875 C 12.082031 -29.460938 12.015625 -28.050781 12.015625 -26.4375 L 12.015625 -24.640625 L 16.078125 -24.640625 C 16.359375 -24.640625 16.617188 -24.601562 16.859375 -24.53125 C 17.097656 -24.46875 17.335938 -24.347656 17.578125 -24.171875 C 18.023438 -23.828125 18.28125 -23.257812 18.34375 -22.46875 L 18.34375 -22.375 C 18.34375 -22.09375 18.289062 -21.816406 18.1875 -21.546875 C 18.09375 -21.273438 17.957031 -21.035156 17.78125 -20.828125 C 17.613281 -20.585938 17.382812 -20.394531 17.09375 -20.25 C 16.800781 -20.113281 16.5 -20.046875 16.1875 -20.046875 L 12.015625 -20.046875 L 12.015625 -5.3125 C 12.015625 -4.382812 12.066406 -3.765625 12.171875 -3.453125 C 12.265625 -3.347656 12.332031 -3.296875 12.375 -3.296875 C 12.4375 -3.265625 12.523438 -3.238281 12.640625 -3.21875 C 12.765625 -3.207031 12.90625 -3.191406 13.0625 -3.171875 C 13.21875 -3.148438 13.414062 -3.128906 13.65625 -3.109375 C 13.894531 -3.097656 14.132812 -3.09375 14.375 -3.09375 L 14.6875 -3.09375 C 15.3125 -3.09375 15.8125 -2.9375 16.1875 -2.625 C 16.5625 -2.28125 16.785156 -1.734375 16.859375 -0.984375 L 16.859375 -0.875 C 16.816406 -0.320312 16.675781 0.15625 16.4375 0.5625 C 16.300781 0.738281 16.144531 0.894531 15.96875 1.03125 C 15.800781 1.164062 15.613281 1.265625 15.40625 1.328125 C 15.207031 1.398438 15.003906 1.4375 14.796875 1.4375 L 14.75 1.4375 C 12.75 1.332031 10.613281 1.28125 8.34375 1.28125 C 7.9375 1.28125 7.523438 1.28125 7.109375 1.28125 C 6.703125 1.28125 6.273438 1.289062 5.828125 1.3125 C 5.378906 1.332031 4.921875 1.347656 4.453125 1.359375 C 3.992188 1.378906 3.523438 1.40625 3.046875 1.4375 L 2.984375 1.4375 C 2.265625 1.4375 1.695312 1.144531 1.28125 0.5625 Z M 1.28125 0.5625 "/></g></g></g><g fill="#000000" fill-opacity="1"><g transform="translate(249.677191, 200.508503)"><g><path d="M 6.90625 0.046875 C 4.914062 -1.148438 3.40625 -2.816406 2.375 -4.953125 C 1.34375 -7.015625 0.828125 -9.296875 0.828125 -11.796875 C 0.828125 -14.035156 1.34375 -16.1875 2.375 -18.25 C 3.4375 -20.3125 4.929688 -21.992188 6.859375 -23.296875 C 8.816406 -24.609375 11.066406 -25.265625 13.609375 -25.265625 C 17.015625 -25.265625 19.660156 -24.367188 21.546875 -22.578125 C 23.429688 -20.785156 24.515625 -18.394531 24.796875 -15.40625 L 24.796875 -15.3125 C 24.796875 -13.726562 24.296875 -12.59375 23.296875 -11.90625 C 22.472656 -11.351562 21.335938 -11.078125 19.890625 -11.078125 L 8.71875 -11.078125 C 8.851562 -8.742188 9.414062 -6.890625 10.40625 -5.515625 C 11.476562 -4.003906 13.179688 -3.25 15.515625 -3.25 C 15.753906 -3.25 15.992188 -3.253906 16.234375 -3.265625 C 16.472656 -3.285156 16.703125 -3.320312 16.921875 -3.375 C 17.148438 -3.425781 17.359375 -3.476562 17.546875 -3.53125 C 17.734375 -3.582031 17.910156 -3.648438 18.078125 -3.734375 C 18.253906 -3.816406 18.429688 -3.910156 18.609375 -4.015625 C 19.460938 -4.535156 20.304688 -5.460938 21.140625 -6.796875 L 21.1875 -6.953125 L 21.28125 -7.0625 C 21.488281 -7.226562 21.710938 -7.375 21.953125 -7.5 C 22.191406 -7.625 22.453125 -7.6875 22.734375 -7.6875 C 22.835938 -7.6875 22.957031 -7.664062 23.09375 -7.625 C 23.226562 -7.59375 23.351562 -7.554688 23.46875 -7.515625 C 23.59375 -7.484375 23.707031 -7.441406 23.8125 -7.390625 C 23.914062 -7.335938 24.003906 -7.296875 24.078125 -7.265625 C 24.796875 -6.785156 25.15625 -6.113281 25.15625 -5.25 C 25.15625 -5.050781 25.128906 -4.851562 25.078125 -4.65625 C 25.023438 -4.46875 24.945312 -4.273438 24.84375 -4.078125 C 24.257812 -3.179688 23.585938 -2.351562 22.828125 -1.59375 C 22.078125 -0.84375 21.253906 -0.207031 20.359375 0.3125 C 18.535156 1.375 16.472656 1.90625 14.171875 1.90625 C 11.359375 1.90625 8.9375 1.285156 6.90625 0.046875 Z M 15.765625 -15.625 C 16.390625 -15.625 16.785156 -15.691406 16.953125 -15.828125 C 17.128906 -15.960938 17.234375 -16.203125 17.265625 -16.546875 C 17.265625 -16.753906 17.253906 -16.941406 17.234375 -17.109375 C 17.222656 -17.285156 17.195312 -17.457031 17.15625 -17.625 C 17.125 -17.800781 17.09375 -17.960938 17.0625 -18.109375 C 17.03125 -18.265625 16.988281 -18.410156 16.9375 -18.546875 C 16.882812 -18.691406 16.820312 -18.832031 16.75 -18.96875 C 16.6875 -19.101562 16.609375 -19.226562 16.515625 -19.34375 C 16.429688 -19.46875 16.335938 -19.601562 16.234375 -19.75 C 15.921875 -20.125 15.554688 -20.40625 15.140625 -20.59375 C 14.734375 -20.78125 14.222656 -20.875 13.609375 -20.875 C 12.265625 -20.875 11.148438 -20.34375 10.265625 -19.28125 C 9.535156 -18.351562 9.050781 -17.132812 8.8125 -15.625 Z M 15.765625 -15.625 "/></g></g></g></svg>